<?xml version="1.0" encoding="UTF-8"?><svg xmlns="http://www.w3.org/2000/svg" viewBox="0 0 269.29 226.77"><defs><style>.cls-1{fill:#fff;}.cls-2{fill:#8b152d;}.cls-3{isolation:isolate;}.cls-4{fill:#fbdada;}.cls-5{fill:#fbbf58;}.cls-6{fill:#221b1c;}.cls-7{fill:#555a60;}.cls-8{fill:#43afe4;}.cls-9{fill:#41b1d4;}.cls-10{fill:#952c2c;}.cls-11{fill:#4b67a8;}.cls-12{fill:#eeb3bd;}.cls-13{fill:#231711;}.cls-14{fill:#812c2f;}.cls-15{fill:#c6c6c6;}.cls-16{fill:#241914;}.cls-17{fill:#241c1c;}.cls-18{mix-blend-mode:darken;}</style></defs><g class="cls-3"><g id="Layer_1"><path class="cls-12" d="m27.36,149.78s-.41-4.61,3.59-4.92,5.02,2.97,4.61,4.1c0,0,4-2.15,5.95,1.64,1.95,3.79-.21,5.84-1.74,5.95,0,0,2.26,4.2.1,6.05-2.15,1.85-4.72,2.15-6.66.62,0,0-3.18,3.59-6.36,1.03-3.18-2.56-1.23-6.05-1.23-6.05,0,0-4.51-.41-3.79-5.02.72-4.61,5.54-3.38,5.54-3.38Z"/><circle class="cls-1" cx="32.17" cy="155.22" r="1.74"/><path class="cls-12" d="m221.28,175.56s-.28-3.19,2.48-3.4,3.47,2.06,3.19,2.83c0,0,2.76-1.49,4.11,1.13,1.35,2.62-.14,4.04-1.2,4.11,0,0,1.56,2.91.07,4.18-1.49,1.28-3.26,1.49-4.61.43,0,0-2.2,2.48-4.39.71-2.2-1.77-.85-4.18-.85-4.18,0,0-3.12-.28-2.62-3.47.5-3.19,3.83-2.34,3.83-2.34Z"/><path class="cls-1" d="m225.86,179.3c0,.67-.54,1.2-1.2,1.2s-1.2-.54-1.2-1.2.54-1.2,1.2-1.2,1.2.54,1.2,1.2Z"/><path class="cls-12" d="m238.7,158.63s-.4-4.52,3.51-4.82c3.91-.3,4.92,2.91,4.52,4.02,0,0,3.91-2.11,5.82,1.61s-.2,5.72-1.71,5.82c0,0,2.21,4.12.1,5.92-2.11,1.81-4.62,2.11-6.52.6,0,0-3.11,3.51-6.22,1s-1.2-5.92-1.2-5.92c0,0-4.42-.4-3.71-4.92s5.42-3.31,5.42-3.31Z"/><circle class="cls-1" cx="243.49" cy="163.92" r="1.71"/><path class="cls-12" d="m112.13,136.47s-.39-4.35,3.38-4.64c3.77-.29,4.73,2.8,4.35,3.86,0,0,3.77-2.03,5.6,1.55,1.84,3.57-.19,5.51-1.64,5.6,0,0,2.13,3.96.1,5.7s-4.44,2.03-6.28.58c0,0-2.99,3.38-5.99.97-2.99-2.41-1.16-5.7-1.16-5.7,0,0-4.25-.39-3.57-4.73.68-4.35,5.22-3.19,5.22-3.19Z"/><path class="cls-1" d="m118.31,141.59c0,.91-.74,1.64-1.64,1.64s-1.64-.74-1.64-1.64.74-1.64,1.64-1.64,1.64.74,1.64,1.64Z"/><path class="cls-12" d="m136.83,62.07s-.41-4.61,3.59-4.92c4-.31,5.02,2.97,4.61,4.1,0,0,4-2.15,5.94,1.64s-.2,5.84-1.74,5.94c0,0,2.25,4.2.1,6.05-2.15,1.84-4.71,2.15-6.66.61,0,0-3.18,3.59-6.35,1.02-3.18-2.56-1.23-6.05-1.23-6.05,0,0-4.51-.41-3.79-5.02s5.53-3.38,5.53-3.38Z"/><path class="cls-1" d="m144.56,67.5c0,.96-.78,1.74-1.74,1.74s-1.74-.78-1.74-1.74.78-1.74,1.74-1.74,1.74.78,1.74,1.74Z"/><path class="cls-12" d="m24.23,70.93s-.33-3.7,2.88-3.95c3.21-.25,4.03,2.39,3.7,3.29,0,0,3.21-1.73,4.77,1.32,1.56,3.04-.16,4.69-1.4,4.77,0,0,1.81,3.37.08,4.85-1.73,1.48-3.78,1.73-5.35.49,0,0-2.55,2.88-5.1.82-2.55-2.06-.99-4.85-.99-4.85,0,0-3.62-.33-3.04-4.03.58-3.7,4.44-2.71,4.44-2.71Z"/><path class="cls-1" d="m29.49,75.29c0,.77-.63,1.4-1.4,1.4s-1.4-.63-1.4-1.4.63-1.4,1.4-1.4,1.4.63,1.4,1.4Z"/><path class="cls-12" d="m33.66,55.88s-.22-2.49,1.94-2.66c2.16-.17,2.71,1.6,2.49,2.21,0,0,2.16-1.16,3.21.89s-.11,3.15-.94,3.21c0,0,1.22,2.27.06,3.26-1.16,1-2.54,1.16-3.6.33,0,0-1.72,1.94-3.43.55-1.72-1.38-.66-3.26-.66-3.26,0,0-2.43-.22-2.05-2.71.39-2.49,2.99-1.83,2.99-1.83Z"/><path class="cls-1" d="m37.2,58.81c0,.52-.42.94-.94.94s-.94-.42-.94-.94.42-.94.94-.94.94.42.94.94Z"/><path class="cls-15" d="m96.9,199.11c-3.18,1.93-10.01,3.75-18.96,4.21-12.02.62-13.34-5.98-10.66-8.55,2.97-2.85,11.25-2.31,20.2-2.6,7.56-.25,12.27,5.2,9.42,6.94Z"/><path class="cls-8" d="m103.8,170.97s11.91-24.64,9.47-29.34c-1.54-2.99-5.77-3.29-5.77-3.29l-24.81-5.04-4.43,31.92s16.78,6.49,25.53,5.77Z"/><path class="cls-16" d="m102.35,172.08c-9.12,0-23.82-5.64-24.47-5.89-.46-.18-.73-.65-.67-1.13l4.43-31.92c.04-.29.2-.55.44-.72.24-.17.53-.23.82-.17l24.75,5.03c.64.06,4.86.58,6.55,3.86,2.55,4.93-7.43,26.09-9.46,30.29-.16.34-.49.56-.86.59-.49.04-1,.06-1.53.06Zm1.44-1.11h.01-.01Zm-24.37-6.46c3.3,1.21,16.24,5.76,23.69,5.44,4.5-9.4,10.78-24.81,9.22-27.84-1.25-2.41-4.87-2.72-4.91-2.73-.04,0-.09,0-.13-.02l-23.71-4.82-4.16,29.96Z"/><path class="cls-5" d="m97.85,170.61c5.05.27,10.13.08,15.14-.57,1.3-.17,2.62-.37,3.91-.15,1.29.22,2.58.93,3.12,2.12.73,1.62-.09,3.49-1,5.01l.33-.61c-.98,1.41-2.55,2.28-4.14,2.93-6.4,2.62-13.92,2.33-20.11-.75"/><path class="cls-16" d="m106.02,182.18c-3.93,0-7.87-.89-11.39-2.64-.52-.26-.73-.89-.47-1.42.26-.52.9-.73,1.42-.47,5.92,2.96,13.12,3.22,19.24.72,1.14-.47,2.77-1.24,3.67-2.55.01-.01.02-.03.03-.04.73-1.41.91-2.5.54-3.32-.41-.9-1.47-1.37-2.33-1.52-1.06-.18-2.17-.03-3.35.12l-.26.03c-5.07.65-10.23.85-15.33.58-.58-.03-1.03-.53-1-1.11.03-.58.52-1.04,1.11-1,4.97.27,10.01.08,14.95-.56l.25-.03c1.28-.17,2.61-.34,3.97-.11,1.81.3,3.27,1.32,3.91,2.73.98,2.17-.13,4.46-1.06,5.99-.13.22-.33.38-.56.45-1.18,1.15-2.65,1.85-3.75,2.3-3.04,1.24-6.31,1.86-9.59,1.86Z"/><path class="cls-16" d="m112.01,170.46c.68-.98,3.39-1.25,3.42-1.25,1.07-.09,1.2.21,1.79.61,3.66,2.5,3.29,6.45,2.87,6.92-1.31,1.44-4.37,2.51-4.95,2.43-2.12-.32-4.42-6.85-3.13-8.71Z"/><path class="cls-16" d="m105.94,171.31c.39-.2,3.98-.22,3.55.37-1.41,1.92-.58,5.12-.57,5.15.29,1.56.93,2.73,1.21,3.28-.63.37-4.47.87-4.86.27-.1-.16-2.58-4.7-.7-8.09.13-.24,1.14-.86,1.37-.98Z"/><path class="cls-5" d="m69.19,178.8c-.26,2.11.19,5.45,1.98,8.24,1.8,2.79,5.25,7.21,10.37,7.42,5.11.2,12.23-1.92,13.84-5.72,1.61-3.8.21-10.22.63-12.01.85-3.55,3.06-2.48,3.63-11.02.39-5.81-.74-9.09-1.59-12.63-.85-3.53,10.38-23.3,10.38-23.3l-63.31-2.33s-12.34,28.17-3.82,37.79c8.52,9.62,12.24,14.86,12.24,14.86,7.6,2.08,15.37,2.1,15.37,2.1"/><path class="cls-16" d="m82.17,195.53c-.23,0-.45,0-.67-.01-4.17-.17-7.94-2.82-11.21-7.9-.91-1.41-1.49-2.93-1.83-4.37-1.79-.04-8.51-.31-15.19-2.14-.24-.06-.44-.21-.58-.41-.04-.05-3.79-5.32-12.17-14.77-8.87-10.01,3.13-37.74,3.64-38.91.17-.4.57-.63,1.01-.63l63.31,2.33c.37.01.7.22.88.54.18.32.18.72,0,1.04-5.42,9.54-10.75,20.58-10.28,22.54.11.48.23.95.35,1.42.79,3.12,1.61,6.34,1.26,11.52-.39,5.8-1.53,7.44-2.54,8.89-.48.7-.87,1.25-1.12,2.31-.11.48-.03,1.74.04,2.97.17,2.75.41,6.51-.73,9.21-1.89,4.45-9.32,6.38-14.18,6.38Zm-12.98-17.78s.09,0,.13,0c.58.07.99.6.92,1.18-.24,1.97.23,5.06,1.82,7.54,2.88,4.46,6.08,6.79,9.52,6.93,4.97.21,11.49-1.93,12.83-5.08.95-2.24.73-5.71.57-8.25-.1-1.63-.18-2.81,0-3.59.35-1.45.9-2.25,1.44-3.03.85-1.22,1.81-2.6,2.16-7.82.32-4.85-.45-7.9-1.2-10.86-.12-.48-.24-.96-.36-1.45-.81-3.35,6.67-17.23,9.64-22.56l-60.85-2.24c-1.76,4.25-11,27.79-3.72,36.01,7.41,8.36,11.16,13.37,12.08,14.64,5.87,1.55,11.83,1.88,13.94,1.95-.08-.92-.06-1.76.02-2.45.07-.54.52-.93,1.05-.93Z"/><path class="cls-5" d="m40.49,140.3s-9.56-2.34-16.31-12.45c-3.01-4.52,1.83-8.09.19-10.12-1.67-2.06-2.01-4.83-.39-5.49,2.6-1.06,4.97,2.47,4.97,2.47l19.69,3.4s-6.97,17.12-8.16,22.19Z"/><path class="cls-16" d="m40.5,141.59c-.1,0-.2-.01-.31-.04-.41-.1-10.13-2.57-17.08-12.99-2.13-3.2-.98-6.1-.22-8.02.33-.82.69-1.75.48-2-1.38-1.71-2.01-3.85-1.6-5.45.25-.97.86-1.69,1.73-2.05,2.57-1.05,4.95.89,6.19,2.49l19.18,3.31c.38.07.72.3.91.64.19.34.21.75.07,1.11-.07.17-6.94,17.08-8.1,22-.08.33-.29.62-.58.8-.2.12-.44.19-.67.19Zm-15.51-28.26c-.17,0-.34.03-.51.1-.05.02-.15.06-.21.31-.17.67.16,2.01,1.11,3.19,1.16,1.43.49,3.1-.09,4.57-.73,1.83-1.41,3.56-.03,5.64,5.01,7.52,11.66,10.56,14.35,11.53,1.5-5.1,5.69-15.65,7.26-19.56l-18.12-3.13c-.35-.06-.65-.26-.85-.55-.01-.02-1.49-2.1-2.91-2.1Z"/><path class="cls-5" d="m64.53,66.82s-1.12-7.74-8.38-9.4c-7.26-1.66-10.43,5.07-9.82,9.04.75,4.86,4.36,5.85,4.36,5.85"/><path class="cls-16" d="m50.68,73.61c-.11,0-.23-.01-.34-.05-.18-.05-4.42-1.28-5.29-6.9-.37-2.39.44-6.08,3.07-8.53,1.52-1.42,4.2-2.91,8.32-1.97,8.03,1.84,9.32,10.12,9.37,10.47.1.7-.39,1.36-1.09,1.46-.71.11-1.35-.38-1.46-1.09-.04-.28-1.11-6.89-7.39-8.33-2.42-.55-4.44-.1-5.99,1.34-1.86,1.73-2.55,4.45-2.27,6.25.6,3.92,3.32,4.78,3.44,4.81.68.2,1.07.91.88,1.59-.16.56-.67.93-1.23.93Z"/><path class="cls-5" d="m87.14,148.78l17.08,1.35s10.9-53.76,10.9-55.26.37-19.46.37-19.46c0,0-9.01-3.05-17.47-5.99-8.46-2.95-39.86-3.08-39.86-3.08,0,0-7.69,6.67-11.28,9.87-3.59,3.2-5.26,45.5-5.26,45.5l10.65,22.06,34.87,5Z"/><path class="cls-5" d="m50.42,130.96s-13.97-4.56-17.45-10.07c-3.48-5.51-6.01-13.39-3.62-20.75s5.75-10.72,7.61-13.18,4.11-8.59,15.97-16.89"/><path class="cls-16" d="m50.42,132.24c-.13,0-.27-.02-.4-.06-.59-.19-14.45-4.77-18.14-10.6-4.49-7.09-5.89-15.26-3.76-21.84,2.08-6.43,4.95-9.99,6.85-12.35.35-.43.67-.83.95-1.21.31-.4.65-.97,1.05-1.62,1.99-3.22,5.31-8.62,15.21-15.54.58-.41,1.38-.26,1.79.32.41.58.26,1.38-.32,1.79-9.46,6.61-12.61,11.73-14.49,14.78-.44.71-.81,1.32-1.19,1.82-.3.4-.64.82-1,1.27-1.89,2.34-4.47,5.55-6.41,11.53-1.9,5.86-.59,13.22,3.49,19.67,2.65,4.19,13,8.3,16.77,9.53.68.22,1.04.95.82,1.62-.18.54-.68.89-1.22.89Z"/><path class="cls-5" d="m60.9,66.67s13.21-4.25,24.84-2.12c11.64,2.13,21.04,8.63,21.04,8.63"/><path class="cls-16" d="m106.78,74.46c-.25,0-.51-.07-.73-.23-.09-.06-9.33-6.37-20.54-8.42-11.17-2.05-24.09,2.04-24.22,2.08-.68.22-1.4-.16-1.62-.83-.22-.68.15-1.4.83-1.62.55-.18,13.65-4.33,25.47-2.17,11.77,2.16,21.15,8.56,21.54,8.83.58.4.73,1.2.33,1.79-.25.36-.65.56-1.06.56Z"/><path class="cls-5" d="m116.02,82.84s6.46,10.79,8.85,23.26c2.38,12.48.24,20.41-5.94,25.75-8.47,7.31-21.37,9.19-32.62,7.08"/><path class="cls-16" d="m95.02,141.03c-2.95,0-5.96-.27-8.96-.84-.7-.13-1.16-.8-1.03-1.5.13-.7.8-1.15,1.5-1.03,12,2.25,24.09-.35,31.55-6.79,5.98-5.16,7.73-12.96,5.52-24.54-2.31-12.11-8.62-22.74-8.69-22.84-.37-.61-.17-1.4.44-1.76.6-.37,1.4-.17,1.76.44.27.45,6.61,11.13,9.01,23.68,2.4,12.57.38,21.14-6.37,26.97-6.14,5.31-15.14,8.2-24.74,8.2Z"/><path class="cls-5" d="m106.48,73.65s2.64-5.85,7.59-5.32,7.43.72,9.01,6.5c1.58,5.78-4.63,9.97-9.07,9.65"/><path class="cls-16" d="m114.48,85.79c-.19,0-.39,0-.58-.02-.71-.05-1.24-.67-1.19-1.38.05-.71.66-1.24,1.38-1.19,2.28.16,5.03-1.1,6.6-3,.86-1.05,1.76-2.77,1.14-5.02-1.33-4.86-2.94-5.03-7.71-5.54l-.2-.02c-3.93-.41-6.25,4.52-6.28,4.57-.29.64-1.05.93-1.7.64-.65-.29-.93-1.05-.64-1.7.12-.27,3.06-6.7,8.9-6.07l.2.02c4.9.52,8.13.87,9.92,7.42.71,2.59.13,5.2-1.63,7.34-1.96,2.38-5.26,3.95-8.2,3.95Z"/><path class="cls-16" d="m92.9,98.51s-.86-1.04-2.16-.73c-1.23.29-1.87,1.01-2.34,2.38,0,0-1.46,4.27,2.87,4.07,0,0,1.55.09,2.11-1.79.28-.96.55-2.8-.48-3.93Z"/><path class="cls-16" d="m90.97,104.46c-1.16,0-2.01-.34-2.52-1.02-.96-1.28-.3-3.27-.27-3.35.52-1.49,1.24-2.22,2.5-2.52,1.39-.34,2.3.71,2.38.8,1.22,1.35.71,3.51.52,4.14-.6,2.04-2.32,1.95-2.33,1.95-.1,0-.19,0-.28,0Zm.25-6.52c-.14,0-.28.02-.44.05-1.11.26-1.72.89-2.18,2.24,0,.02-.62,1.85.2,2.94.46.61,1.27.88,2.45.84.09,0,1.41.05,1.9-1.63.17-.58.64-2.55-.43-3.72h0s-.6-.71-1.5-.71Z"/><path class="cls-16" d="m79.44,103.16s.89,1.78-.07,3.64c-.64,1.25-3.18,2.92-5.96,2.82,0,0-2.92-.65-4.77-1.86-1.51-.98-1.89-3.87-.29-5.57,0,0,1.63-1.56,5.44-1.51,1.99.03,4.6.31,5.65,2.48Z"/><path class="cls-16" d="m124.83,116.92c-4.84-.12-6.42-.93-7.43-2.03-.57-.61-.9-2.84,1.04-3.73,1.08-.49,3.11-.19,6.35-.88.25-.05.74,6.65.03,6.63Z"/><path class="cls-16" d="m122,129.26c-4.03-.01-8.58-3.86-8.61-3.89-2.42-2.46-.32-6.04,1.74-5.92.23.01,4.5.25,9.62,1.49.39.09-.09,8.33-2.75,8.32Z"/><path class="cls-13" d="m71.19,79.89c.16,1.01.81,2.35,3.28,1.97,3.42-.53,7.19.63,7.24.66,1.75.93,2.87-.23,3.32-1.32.32-.78.3-2.41-.75-3.08-.95-.61-4.95-2.52-10.67-1.37-2.46.5-2.51,2.6-2.42,3.13Z"/><path class="cls-13" d="m90.81,75.86c-.49.61-1.51.87-2.43.57-3.36-1.1-6.35-2.31-8.85-2.6-3.92-.46-8.65.44-8.7.45-1.3.08-1.93-.59-2.21-1.59-.22-.79.16-2.14,1.41-2.76,2.28-1.13,7.85-1.69,11.79-.94,2.3.44,7.03,1.59,9.14,4.09.26.31.8,1.61-.15,2.78Z"/><path class="cls-13" d="m86.2,64.52c.62.73-1.36,4.31-1.69,5.22-1.11,3.04-1.84,5.4-2.73,8.12-1.24,3.79-1.72,5.55-1.74,5.6-.35,1.18-1.95,2.03-3.02,1.69-1.41-.45-1.68-1.78-1.67-2.69.01-2.24.21-4.45.99-7.76.53-2.26,1.84-8.47,3.28-10.83.19-.32,5.87-.18,6.58.66Z"/><path class="cls-16" d="m61.4,93.82s-.74-.87-2.02-.77c-.84.07-1.93.46-2.51,2.13,0,0-1.48,4.89,3.19,4.09,0,0,1.27-.19,1.8-1.67.32-.91.57-2.62-.46-3.77Z"/><path class="cls-16" d="m59.11,99.57c-.9,0-1.58-.26-2.04-.78-1.12-1.27-.43-3.59-.4-3.68.49-1.42,1.4-2.19,2.7-2.29,1.36-.1,2.15.78,2.21.85,1.31,1.46.65,3.58.5,4-.57,1.58-1.92,1.81-1.97,1.82-.36.06-.69.09-.99.09Zm.48-6.32c-.06,0-.13,0-.19,0-1.13.09-1.88.73-2.31,1.98,0,.01-.64,2.17.32,3.26.51.57,1.39.76,2.63.55.05,0,1.15-.2,1.63-1.53.36-1.02.47-2.56-.42-3.55h0s-.62-.71-1.65-.71Z"/><path class="cls-5" d="m29.34,100.13c2.38-7.36,5.75-10.72,7.61-13.18s4.11-8.59,15.97-16.89"/><path class="cls-16" d="m29.34,101.42c-.13,0-.26-.02-.4-.06-.68-.22-1.05-.94-.83-1.62,2.08-6.43,4.95-9.99,6.85-12.35.35-.43.67-.83.95-1.21.31-.4.65-.97,1.05-1.62,1.99-3.22,5.31-8.62,15.21-15.54.58-.41,1.38-.26,1.79.32.41.58.26,1.38-.32,1.79-9.46,6.61-12.61,11.73-14.49,14.78-.44.71-.81,1.32-1.19,1.82-.3.4-.64.82-1,1.27-1.89,2.34-4.47,5.55-6.41,11.53-.18.55-.68.89-1.22.89Z"/><path class="cls-16" d="m31.08,96.37c.74.56,2.52,1.29,3.37,1.54,2.36.69,3.41.32,3.44.32.61.02,1.79-.76,2.19-2.03.25-.81.15-1.58-.77-2.37-.17-.14-2.32-1.42-4.14-3.46-.2-.23-4.77,5.48-4.08,6Z"/><path class="cls-16" d="m28.73,107.9c5.03,1.87,7.99.16,8.41-.37.46-.59.82-1.37.77-2.73-.02-.7-.31-1.39-1.25-1.88-.21-.11-4.56-1.2-6.49-2.78-.31-.25-2.35,7.42-1.45,7.76Z"/><path class="cls-5" d="m103.43,139.94s10.32,3.29,12.82,8.3,3.34,9.47-1.67,13.65c-5.01,4.18-8.91,4.46-14.48-.28-5.57-4.73-8.63-6.68-8.63-6.68"/><path class="cls-16" d="m107.53,166.4c-2.63,0-5.27-1.27-8.26-3.81-5.42-4.6-8.46-6.56-8.49-6.58-.6-.38-.77-1.18-.39-1.78.38-.6,1.18-.78,1.78-.39.13.08,3.2,2.05,8.78,6.79,4.87,4.14,8.1,4.2,12.83.27,4.34-3.62,3.73-7.31,1.34-12.08-1.85-3.71-9.34-6.78-12.06-7.65-.68-.22-1.05-.94-.83-1.62.21-.68.93-1.05,1.62-.84.44.14,10.86,3.52,13.58,8.95,2.37,4.73,3.98,10.23-2,15.21-2.82,2.35-5.34,3.52-7.88,3.52Z"/><path class="cls-5" d="m54.13,179.36c-1.6,1.37-6.71,4.6-12.22,4.21-5.52-.39-11-6.92-12.75-11.28-1.75-4.36-1.11-10.7,4.46-14.16,5.57-3.46,11.25.24,13.94,2.72"/><path class="cls-16" d="m42.85,184.65c-.34,0-.68-.01-1.02-.04-5.95-.43-11.75-7.21-13.65-11.94-1.92-4.79-1.22-11.66,4.88-15.45,6.72-4.17,13.34,1.12,15.21,2.84.43.39.46,1.06.06,1.49-.39.43-1.06.46-1.49.06-2.04-1.88-7.37-5.89-12.67-2.6-5.06,3.14-5.64,8.87-4.03,12.87,1.65,4.11,6.82,10.26,11.84,10.62,5.18.37,10.04-2.73,11.46-3.95.44-.38,1.11-.33,1.49.11.38.44.33,1.11-.11,1.49-1.88,1.62-6.66,4.5-11.97,4.5Z"/><path class="cls-10" d="m35.07,168.64c2.3-1.32,5.2-.25,6.65,3.22,1.44,3.48-.29,5.22-1.58,5.6-1.29.38-2.83.54-5.33-3.06-2.5-3.61.26-5.76.26-5.76Z"/><path class="cls-10" d="m37.41,164.48c.04-.39.42-.67.79-.57.62.17,1.39.94,1.44,1.55.07.87-.19,1.02-.75.98-.36-.03-1.14-.09-1.38-.66-.08-.19-.13-1.01-.1-1.3Z"/><path class="cls-10" d="m33.85,164.05c.8-.62,1.94.11,2.19,1.01.25.9-.35,1.37-.75,1.5-.4.13-.9,0-1.25-.69-.35-.69-.73-1.39-.19-1.82Z"/><path class="cls-10" d="m31.84,166.37c.74-.45,1.7.57,1.81.94s.27,1.14-.53,1.58c-.8.44-1.62-.58-1.65-1-.03-.41-.05-1.26.37-1.52Z"/><path class="cls-5" d="m38.22,125.81s-2.8,6.74-2.7,10.22"/><path class="cls-16" d="m35.52,137.31c-.69,0-1.27-.55-1.29-1.25-.1-3.72,2.68-10.46,2.8-10.75.27-.66,1.03-.96,1.68-.7.66.27.97,1.03.7,1.68-.75,1.8-2.67,7.06-2.6,9.69.02.71-.54,1.3-1.25,1.32h-.04Z"/><path class="cls-8" d="m38.95,127.36s3.58,1.91,3.89,1.95c0,0-2.93,8.21-3.24,9.49l-3.57-1.54s1.17-5.73,2.92-9.89Z"/><path class="cls-8" d="m99.69,139.63s7.27.11,8.07,2.38c0,0-6.81,15.48-7.29,18.09l-5.33-3.51s1.86-8.5,4.55-16.96Z"/><path class="cls-16" d="m100.47,161.16c-.2,0-.41-.06-.58-.17l-5.33-3.51c-.37-.24-.55-.68-.45-1.11.02-.09,1.91-8.64,4.57-17.05.14-.44.55-.74,1.01-.74h.02c1.88.03,8.09.33,9.05,3.08.09.25.08.53-.03.78-1.88,4.28-6.85,15.82-7.22,17.86-.06.35-.3.64-.62.78-.13.06-.27.08-.41.08Zm-4.14-5.05l3.52,2.32c1.39-4.13,5.57-13.73,6.71-16.33-.75-.66-3.34-1.25-6.11-1.38-2.08,6.67-3.64,13.27-4.13,15.4Z"/><path class="cls-1" d="m62.4,167.66c4,.39,9.97-3.02,12.96-7.58,2.4-3.66,4.26-7.43,4.9-12.58.98-6.84-5.91-4.67-12.3-5.78-6.46-1.13-11.46-6.81-13.66,2.24-.76,4.54-1.46,9.03-.63,13.13.93,4.63,5.35,10.25,8.74,10.58Z"/><path class="cls-10" d="m27,124.94s.97,2.09,3.28.84c.22-.12.4-.25.5-.71,0,0,.02-.74.46-.95.91-.64.9-1.36.71-2.07-.26-.95-1.29-1.79-2.48-1.69,0,0-1.42-.14-2.41,1.49-.52.84-.78,1.9-.05,3.08Z"/><path class="cls-10" d="m90.23,119.51s-4.28,1.4-6.78,3.66c-2.5,2.26-4.17,4.22-8.09,4.72-3.92.5-9.45-.46-11.22-2.3-1.77-1.84-3.41-4.41-4.02-6.2-.62-1.79-1.59-4.22-2.63-4.65"/><path class="cls-16" d="m73.16,129c-3.72,0-8.02-.95-9.73-2.73-1.82-1.9-3.57-4.6-4.24-6.56-1.27-3.69-2.05-4.06-2.08-4.07-.5-.21-.73-.78-.52-1.28.21-.5.79-.73,1.28-.52.75.32,1.78,1.2,3.17,5.24.58,1.69,2.18,4.15,3.8,5.84,1.44,1.5,6.59,2.49,10.39,2,3.15-.4,4.63-1.78,6.69-3.68.28-.26.57-.53.87-.8,2.63-2.37,6.95-3.8,7.14-3.86.52-.17,1.06.11,1.23.63.17.51-.11,1.07-.62,1.23-.04.01-4.12,1.37-6.43,3.45-.29.26-.57.52-.85.78-2.15,1.99-4,3.7-7.77,4.18-.72.09-1.51.14-2.32.14Z"/><path class="cls-10" d="m61.76,115.51s3.2,3.04,7.52,3.76,11.99-.71,11.99-.71c0,0-3.37-.95-5.45-3.82-2.08-2.87-3.03-4.46-3.03-4.46,0,0-4.33,4.65-7.96,4.92s-3.07.32-3.07.32Z"/><path class="cls-1" d="m79.63,117.43s.15,2.35.77,3.74c.21.46.57,1.14,1.09,1.11,0,0,.34.09,1-.41.59-.45,1.92-1.95,1.84-2.86"/><path class="cls-1" d="m60.55,115.23s.1,1.17.7,2.63c.2.49.45.91.77,1.04,0,0,.64.27,1.68-.94.43-.5,1.36-1.65,1.35-2.32"/><path class="cls-16" d="m89.53,120.51c-2.5,0-5.67-.52-7.69-1.29-2.31-.88-4.92-2.34-6.63-3.73-1.3-1.05-2.06-2.54-2.5-4.02-1.9,2.59-4.96,4.23-8.61,4.53-2.28.19-5.25.27-7.99-.78-3.8-1.45-5.83-3.88-5.42-6.5.08-.53.58-.9,1.12-.81.53.08.9.58.81,1.12-.38,2.42,3.1,3.96,4.18,4.37,2.37.91,5.06.83,7.13.66,4.04-.33,7.07-2.46,8.32-5.85.16-.43.58-.69,1.05-.63.45.06.8.43.84.89.12,1.46.57,4.11,2.29,5.5,1.54,1.25,3.99,2.62,6.09,3.42,1.95.74,5.37,1.25,7.65,1.14,2.74-.13,4.25-1.16,4.75-3.24.13-.52.65-.85,1.18-.72.52.13.85.65.72,1.18-.49,2.04-2.03,4.52-6.56,4.73-.24.01-.49.02-.74.02Z"/><path class="cls-5" d="m94.16,91.54s3.23.99,4.22,3.47"/><path class="cls-16" d="m98.37,96.3c-.51,0-.99-.31-1.2-.81-.75-1.87-3.38-2.71-3.4-2.72-.68-.21-1.06-.93-.84-1.61s.92-1.06,1.61-.85c.16.05,3.83,1.21,5.03,4.23.26.66-.06,1.41-.72,1.67-.16.06-.32.09-.48.09Z"/><path class="cls-15" d="m194.02,199.11c-3.18,1.93-10.01,3.75-18.96,4.21-12.02.62-13.34-5.98-10.66-8.55,2.97-2.85,11.25-2.31,20.2-2.6,7.56-.25,12.27,5.2,9.42,6.94Z"/><path class="cls-8" d="m206,166.6c3.52.53,6.97-1.32,8.42-4.57,3.33-7.44,8.72-25.11,6.98-28.49-1.54-2.99-6.08-4.17-6.08-4.17l-24.27-.11-4.43,31.92s10.63,4.11,19.38,5.42Z"/><path class="cls-16" d="m207.18,167.75c-.44,0-.89-.03-1.34-.1h0c-8.77-1.32-19.17-5.31-19.6-5.48-.46-.18-.73-.65-.67-1.13l4.43-31.92c.07-.52.52-.91,1.05-.91h0l24.27.11c.09,0,.18.01.26.03.2.05,5.01,1.34,6.75,4.7,2.18,4.21-4.31,23.5-6.95,29.4-1.45,3.24-4.71,5.29-8.21,5.29Zm-1.02-2.19c3.06.45,6.05-1.17,7.3-3.96,3.53-7.9,8.42-24.83,7-27.57-1.18-2.28-4.61-3.4-5.29-3.6l-23.2-.11-4.19,30.16c2.6.96,11.19,3.99,18.37,5.07h0Z"/><path class="cls-1" d="m136.61,112.37c3.51-1.76,9-4.39,12.95,1.32,3.95,5.71,5.93,7.68,14.49,13.61,8.56,5.93-1.32,17.12-1.32,17.12,0,0-3.73,2.2-11.85-1.54-8.12-3.73-22.17-13.39-20.41-20.63,1.76-7.24,6.15-9.88,6.15-9.88Z"/><path class="cls-16" d="m159.35,146.1c-2.1,0-5.06-.49-8.91-2.27-7.72-3.55-23.01-13.55-21-21.84,1.84-7.59,6.44-10.42,6.63-10.53l.07-.04c3.41-1.71,9.76-4.88,14.29,1.66,3.77,5.44,5.53,7.33,14.22,13.34,2.27,1.57,3.58,3.63,3.88,6.11.73,6-4.77,12.31-5.01,12.58l-.26.21c-.09.06-1.38.78-3.92.78Zm-22.22-32.82c-.36.24-4.09,2.82-5.64,9.2-1.45,5.98,10.8,15.28,19.83,19.43,6.58,3.02,10.05,1.93,10.75,1.64.8-.97,4.92-6.18,4.36-10.77-.23-1.88-1.21-3.39-2.98-4.62-8.41-5.82-10.61-7.89-14.75-13.88-3.21-4.63-7.3-3.13-11.56-1Z"/><path class="cls-1" d="m133.57,109.58c-4.48,2.24-6.02,8.56-2.95,12.94,2.63,3.77,10.14,2.01,13.65-1.13,1.26-1.13,3.66-4.64,1.13-9.43-2.53-4.78-8.44-4.08-11.82-2.39Z"/><path class="cls-16" d="m135.56,125.72c-.4,0-.8-.02-1.18-.07-2.04-.24-3.64-1.11-4.63-2.52-1.67-2.39-2.2-5.42-1.47-8.32.7-2.74,2.45-4.99,4.81-6.17,3.73-1.86,10.32-2.64,13.22,2.84,2.7,5.09.42,9.13-1.36,10.71-2.4,2.14-6.18,3.53-9.41,3.53Zm3.32-16.36c-1.75,0-3.51.51-4.83,1.17h0c-1.81.91-3.17,2.66-3.71,4.8-.58,2.3-.17,4.7,1.15,6.59.64.91,1.69,1.46,3.14,1.63,2.84.34,6.69-.93,8.94-2.94.14-.13,3.51-3.21.9-8.14-1.22-2.31-3.39-3.11-5.58-3.11Zm-5.31.22h.01-.01Z"/><path class="cls-1" d="m198.67,132.7c6.37-1.76,13.17,0,16.46.88s10.76,1.54,14.05,6.59c3.29,5.05-2.63,14.71-6.37,14.93-3.73.22-9.44-.22-14.49-3.07-5.05-2.85-9.66-19.32-9.66-19.32Z"/><path class="cls-16" d="m221.1,156.19c-3.4,0-8.51-.56-13.3-3.26-5.28-2.98-9.67-18.22-10.16-19.95l-.29-1.02,1.02-.28c6.75-1.86,13.95.06,17.02.88.55.15,1.22.29,1.97.44,3.87.81,9.73,2.04,12.69,6.58,1.67,2.56,1.47,6.44-.52,10.38-1.5,2.97-4.14,6.03-6.67,6.18-.52.03-1.11.05-1.77.05Zm-21.11-22.73c1.52,5.06,5.3,15.62,8.86,17.63,5.43,3.07,11.53,3.08,13.91,2.94,1.2-.07,3.37-1.97,4.91-5.02,1.65-3.26,1.88-6.36.63-8.27-2.49-3.81-7.82-4.93-11.35-5.67-.79-.17-1.5-.32-2.08-.47-2.74-.73-8.97-2.39-14.87-1.13Z"/><path class="cls-1" d="m233.33,148.34c.79-4.42-2.97-9.02-7.82-9.28-4.17-.23-6.94,6.07-6.56,10.3.14,1.52,1.4,5.17,6.25,6.03,4.85.86,7.53-3.72,8.13-7.05Z"/><path class="cls-16" d="m226.4,156.55c-.44,0-.91-.04-1.39-.13-5.2-.92-6.92-4.82-7.12-6.98-.29-3.27,1.06-7.27,3.23-9.51,1.31-1.36,2.86-2.03,4.44-1.94,2.69.15,5.21,1.48,6.94,3.66,1.6,2.02,2.28,4.53,1.86,6.86-.61,3.41-3.21,8.03-7.97,8.03Zm-1.11-16.44c-.93,0-1.82.44-2.65,1.3-1.75,1.81-2.88,5.19-2.64,7.85.01.17.44,4.21,5.38,5.08,4.11.73,6.39-3.3,6.91-6.2h0c.31-1.74-.21-3.63-1.44-5.18-1.35-1.7-3.31-2.75-5.39-2.86-.05,0-.11,0-.16,0Z"/><path class="cls-2" d="m162.54,124.89s-12.34,14.65-10.15,32c2.18,17.35,7.58,8.48,7.58,8.48,0,0,8.48-3.47,17.09-2.57,8.61.9,23.65,3.73,25.58,5.53s4.63-.39,5.14-1.8c.51-1.41,1.41-15.17.51-18.12-.9-2.96-2.96-12.6-1.41-14.91"/><path class="cls-13" d="m204.31,170.07c-.89,0-1.71-.33-2.39-.96-1.46-1.36-14.99-4.21-24.97-5.25-7.36-.76-14.74,1.8-16.29,2.38-.58.83-2.22,2.85-4.31,2.4-2.49-.53-4.08-4.22-5.01-11.61-2.22-17.61,9.88-32.2,10.39-32.82.38-.45,1.04-.51,1.49-.13.45.38.5,1.04.13,1.49-.12.14-12.01,14.52-9.91,31.19,1.12,8.89,2.99,9.73,3.36,9.81.79.17,1.89-1.13,2.27-1.75.12-.19.29-.34.5-.43.36-.15,8.84-3.56,17.6-2.64,6.72.7,23.74,3.52,26.19,5.8.39.36.82.47,1.35.35.97-.23,1.88-1.18,2.08-1.73.49-1.44,1.31-14.8.5-17.46-.04-.12-3.49-12.5-1.28-15.8.32-.48.98-.62,1.47-.29.49.32.62.98.29,1.47-1.1,1.65.35,10.08,1.54,14.02.95,3.12.09,17.08-.53,18.79-.43,1.19-1.89,2.66-3.57,3.07-.3.07-.6.11-.89.11Z"/><path class="cls-1" d="m171.13,164s-3.8-9.33-9.17-9.33-13.76,2.06-12.66,11.71c1.11,9.65,7.12,12.5,9.97,12.97,2.85.47,5.54,0,8.38-.79,2.85-.79,7.12-2.53,11.23-.79s9.02,5.54,12.65,6.8c3.64,1.27,9.18,3.01,12.34-.95,3.16-3.95,6.1-8.07,2.16-14.04"/><path class="cls-13" d="m198.35,187.1c-2.73,0-5.45-.95-7.16-1.54-2.03-.71-4.31-2.08-6.72-3.54-2.03-1.23-4.13-2.49-6-3.29-3.22-1.36-6.6-.34-9.32.48-.43.13-.83.25-1.21.36-2.54.71-5.59,1.36-8.84.82-.96-.16-9.47-1.92-10.84-13.89-.41-3.6.37-6.54,2.34-8.74,3.33-3.74,9.06-4.14,11.37-4.14,6.02,0,9.99,9.58,10.15,9.99.22.54-.04,1.16-.58,1.38-.54.22-1.16-.04-1.38-.58-.99-2.41-4.38-8.68-8.2-8.68-2.02,0-7.03.33-9.79,3.43-1.55,1.73-2.16,4.12-1.82,7.1,1.2,10.44,8.29,11.92,9.09,12.05,2.84.47,5.49-.09,7.93-.77.37-.1.76-.22,1.17-.34,2.88-.87,6.84-2.06,10.76-.4,2.01.85,4.18,2.16,6.27,3.42,2.32,1.4,4.51,2.72,6.32,3.35,4.04,1.41,8.57,2.63,11.17-.61,3.38-4.23,5.52-7.63,2.1-12.79-.32-.49-.19-1.14.3-1.46.49-.32,1.14-.19,1.46.3,4.53,6.85.63,11.72-2.21,15.28-1.72,2.15-4.04,2.83-6.35,2.83Z"/><path class="cls-1" d="m155.91,82.21s-8.19,16.53-7.27,24c.92,7.47,2.91,16.24,21.09,21.82,18.18,5.58,30.79,7.76,40.97,4.85,10.18-2.91,18.18-12.61,18.18-15.76s-8.49-42.43-8.49-42.43l-57.7-5.82-6.79,13.33Z"/><path class="cls-13" d="m200.74,135.22c-8.94,0-19.27-2.49-31.31-6.18-18.26-5.6-20.8-14.28-21.83-22.7-.95-7.7,7.03-23.91,7.38-24.6,0,0,0,0,0-.01l6.79-13.33c.2-.39.6-.62,1.05-.57l57.7,5.82c.46.05.83.38.93.83.87,4.03,8.51,39.48,8.51,42.65,0,3.84-8.58,13.81-18.95,16.77-3.2.92-6.62,1.33-10.26,1.33Zm-43.88-52.54c-.18.36-8.03,16.37-7.17,23.4.75,6.08,1.88,15.27,20.35,20.94,16.6,5.09,29.81,7.86,40.37,4.84,10.19-2.91,17.42-12.38,17.42-14.74,0-2.19-4.9-25.7-8.3-41.45l-56.22-5.67-6.46,12.68Z"/><path class="cls-6" d="m162.36,78.78c.54-.53,17.47,3.11,25.27,5.24,7.26,1.99,21.69,5.16,24.55,5.66,2.08.37,2.91,8.54,3.19,12.01.38,4.77-1.47,13.97-1.35,15.08.18,1.59,9.18,3.51,13.91,3.55,6.67.05,8.76-1.46,11.27-5.43,1.1-1.75,3.57-11.7,2.69-19.58-.88-7.88-2.79-13-7.85-22.42-5.07-9.42-16.45-19.2-25.96-21.02-9.5-1.82-7.84-2.61-16.07-3-9.64-.45-15.84.57-21.87,3.26-6.03,2.68-9.91,5.58-14.95,10.87-5.04,5.29-8.99,8.94-12.36,17.52-2.36,5.99-1.83,11.58-1.77,12.63.06,1.04.19,2.27,1.7,3.03,1.51.76,5.69,2.39,7.94,2.44,2.25.05,2.62-1.12,2.9-2.22s1.26-10.23,8.78-17.63Z"/><path class="cls-7" d="m232.55,85.38c-.38,0-.76-.14-1.05-.4l-6.52-5.81c1.23,5.52.81,5.67-.35,6.09-.43.15-1.5.34-2.25-1.2-.67-1.4-4.43-5.15-7.56-8.05l-1.32,5.41c-.15.62-.65,1.08-1.28,1.19-.63.11-1.25-.18-1.6-.71-1.24-1.96-1.95-3.7-2.52-5.1-1.33-3.3-1.78-4.41-7.45-4.25-7.93.2-16.16-3.48-19.26-4.87-.27-.12-.5-.23-.68-.31-.42.2-1.07.54-1.63.83-4.72,2.45-5.94,2.95-7.05,2.2-.53-.35-.81-.95-.76-1.59.03-.39.02-1.18,0-2.01-2.97.88-5.88,1.81-6.48,2.12-.59.42-1.45.41-2.01-.06-.94-.81-1.04-1.17,1.21-5.1l-6.36,1.75c-.84.23-1.72-.26-1.95-1.11-.23-.84.26-1.72,1.11-1.95l10.12-2.79c.63-.17,1.29.05,1.68.56s.43,1.21.11,1.77c-.53.89-1.09,1.86-1.6,2.75,1.29-.41,2.99-.92,5.23-1.56.46-.14.96-.05,1.35.23.39.28.64.72.67,1.2.01.19.07,1.26.11,2.35,1.06-.49,2.39-1.18,3.18-1.59,2.06-1.07,2.47-1.27,3-1.29.48-.01.79.12,2.07.7,2.91,1.31,10.6,4.78,17.86,4.59,7.5-.21,8.86,2.23,10.48,6.23.12.3.25.61.38.93l.95-3.87c.13-.54.54-.97,1.07-1.14.53-.17,1.11-.04,1.53.33.89.79,3.9,3.51,6.48,6.17-.23-1-.48-2.03-.72-3-.17-.68.13-1.38.72-1.74.59-.36,1.35-.29,1.87.17l7.44,6.62c.02-2.24.42-2.74.62-3,.54-.69,1.54-.8,2.23-.26.62.49.77,1.35.4,2.02-.13.61-.08,2.79.12,4.8.06.65-.28,1.27-.86,1.57-.23.12-.47.17-.72.17Zm-67.65-16.55s-.05.04-.07.06c.03-.02.05-.04.07-.06Zm16.2-1.65h0Z"/><g class="cls-18"><path class="cls-4" d="m204.9,127.69s13.96-1.18,12.37-10.27c0,0,.2-3.27-5.2-6.1-3.1-1.62-9.88-1.4-13.16,1.47,0,0-3.41,2.39-1.83,9.03.6,2.52,2.71,5.38,7.82,5.86Z"/></g><g class="cls-18"><path class="cls-4" d="m153.12,112.82s-6.1-8.36.89-12.14c0,0,1.98-2.11,6.59-.26,2.65,1.06,5.89,5.36,5.57,8.89,0,0,.07,3.36-5.24,5.86-2.02.95-4.94.54-7.81-2.36Z"/></g><path class="cls-14" d="m177.04,106.83s1.99.2,8.03,1.5c0,0,3,.49,3.53,1.99.38,1.09.09,4.36-3.16,5.89,0,0-2.96,1.2-6.89-.32-1.39-.54-3.33-1.92-4.13-3.25,0,0-.99-1.57-.63-3.2.22-.98.72-2.76,3.24-2.62Z"/><path class="cls-1" d="m186.79,109.7s-.74,2.51-6.05,1.24c0,0-1.82-.45-2.96-1.25-.68-.48-1.38-1.29-1.39-1.97,0,0,1.21-.07,3.02.11,2.01.2,6.1,1.07,7.38,1.87Z"/><path class="cls-13" d="m182.47,117.51c-1.19,0-2.65-.19-4.26-.82-1.51-.58-3.6-2.07-4.5-3.56-.04-.06-1.15-1.83-.72-3.74.19-.83.75-3.36,4-3.2.01,0,.02,0,.03,0,.08,0,2.1.22,8.11,1.51.32.05,3.42.61,4.07,2.47.53,1.49.02,5.13-3.54,6.81-.1.04-1.32.53-3.21.53Zm-5.78-9.84c-1.65,0-2.03,1.05-2.26,2.05-.29,1.3.52,2.62.53,2.64.71,1.17,2.52,2.47,3.77,2.95,3.58,1.38,6.32.33,6.34.31,2.92-1.38,2.98-4.27,2.74-4.96-.29-.81-2.11-1.36-2.95-1.5-5.66-1.21-7.77-1.47-7.97-1.49-.07,0-.14,0-.21,0Z"/><path class="cls-17" d="m194.73,102.66c-1.17.05,1.17-4.17,6.01-1,1.98,1.3,1.5,3.59,1.5,3.59,0,0-1.25-2.84-7.51-2.59Z"/><path class="cls-16" d="m202.24,106.3c-.41,0-.8-.24-.97-.63h0s-1.18-2.16-6.5-1.96c-.58.02-1.11-.31-1.31-.84-.28-.76.15-1.77,1.07-2.51.65-.52,3.06-2.02,6.78.41,2.56,1.68,1.98,4.57,1.96,4.69-.09.45-.47.79-.92.83-.04,0-.07,0-.11,0Zm-5.59-4.68c1.05.07,1.94.23,2.69.44-1.2-.6-2.09-.6-2.69-.44Zm-1.95-.02s0,0,0,0h0s0,0,0,0Z"/><path class="cls-17" d="m165.45,94.18c.35-.52,2.7-2.43,5.05-1.48,2.73,1.09,3.53,3.29,3.46,3.8-.13.88-.78.52-1.24.29-.46-.23-2.31-2.02-4.13-2.25-1.82-.23-3.44.09-3.14-.35Z"/><path class="cls-16" d="m173.5,98.12c-.49,0-.92-.22-1.2-.36-.25-.13-.46-.29-.78-.53-.69-.52-1.97-1.5-3.06-1.64-.69-.09-1.38-.08-1.92-.09-.92,0-1.68,0-2.05-.69-.2-.38-.18-.84.08-1.22h0c.49-.74,3.31-3.09,6.33-1.88,3.04,1.22,4.27,3.82,4.11,4.94-.11.78-.52,1.14-.84,1.3-.23.12-.45.16-.67.16Zm-4.63-4.61c1.23.2,2.39.91,3.24,1.52-.43-.47-1.07-.98-1.99-1.35-.42-.17-.85-.21-1.25-.17Zm-3.42.67h.01-.01Z"/><path class="cls-2" d="m181.6,133.57s-5.29,17.33-5.3,23.67c0,3.45,0,4.92.77,5.56"/><path class="cls-13" d="m177.07,163.87c-.24,0-.48-.08-.68-.24-1.16-.96-1.16-2.55-1.15-6.38,0-6.42,5.13-23.26,5.35-23.98.17-.56.76-.87,1.32-.7.56.17.87.76.7,1.32-.05.17-5.25,17.25-5.26,23.36,0,2.57,0,4.42.39,4.75.45.37.51,1.04.14,1.49-.21.25-.51.38-.81.38Z"/><path class="cls-2" d="m177.07,162.81c8.61.9,23.65,3.73,25.58,5.53s4.63-.39,5.14-1.8"/><path class="cls-13" d="m204.31,170.07c-.89,0-1.71-.33-2.39-.96-1.46-1.36-14.99-4.21-24.97-5.25-.58-.06-1-.58-.94-1.16.06-.58.58-1.02,1.16-.94,6.72.7,23.74,3.52,26.19,5.8.39.36.82.47,1.35.35.97-.23,1.88-1.18,2.08-1.73.2-.55.81-.83,1.35-.63.55.2.83.81.63,1.35-.43,1.19-1.89,2.66-3.57,3.07-.3.07-.6.11-.89.11Z"/><path class="cls-1" d="m181.09,156.34c.98.59.24,1.51.24,1.51-.32.35-.68.35-.98.28-.57-.13-.68-.54-.68-.54,0,0-.26-.55.25-1.12.23-.25.69-.42,1.17-.14Z"/><path class="cls-1" d="m184.6,138.91c.98.59.24,1.51.24,1.51-.32.35-.68.35-.98.28-.57-.13-.68-.54-.68-.54,0,0-.26-.55.25-1.12.23-.25.69-.42,1.17-.14Z"/><path class="cls-1" d="m182.62,146.88c.98.59.24,1.51.24,1.51-.32.35-.68.35-.98.28-.57-.13-.68-.54-.68-.54,0,0-.26-.55.25-1.12.23-.25.69-.42,1.17-.14Z"/><path class="cls-1" d="m194.89,150.88c-.18.24-1.96.09-2.03-.6-.25-2.35.95-8.09,1.15-9.07.06-.31.26-.4.51-.46.39-.11.88.03,1.23.09.57.09.6.39.55.73-.25,1.57-1.31,6.65-1.13,8.33.04.36-.02.94-.27.98Z"/><path class="cls-1" d="m196.06,147.05c-.31.05-1.77-1.31-1.23-1.78,1.69-1.45,3.31-2.17,4.18-2.73.28-.18.48-.11.71.01.36.18.61.61.82.88.35.44.15.67-.15.88-1.35.94-1.91,1.15-3.41,2.23-.31.22-.71.65-.92.51Z"/><path class="cls-1" d="m194.43,147c-.11-.28.94-1.94,1.52-1.52,1.83,1.33,3.1,2.57,3.85,3.29.24.23.2.43.12.66-.12.36-.64.88-.88,1.12-.39.4-.67.25-.94,0-1.24-1.1-1.55-1.58-2.96-2.79-.29-.25-.81-.55-.71-.77Z"/><path class="cls-8" d="m207.31,133.33s9.57-.74,10.37,1.53c0,0-6.81,15.48-7.29,18.09l-1.5-.56s-4.26-10.59-1.58-19.06Z"/><path class="cls-16" d="m210.4,154.01c-.13,0-.25-.02-.37-.07l-1.5-.56c-.28-.1-.5-.32-.61-.59-.18-.45-4.37-11.05-1.61-19.77.13-.41.5-.7.93-.73,3.88-.3,10.52-.41,11.45,2.23.09.25.08.53-.03.78-1.88,4.28-6.85,15.82-7.22,17.86-.06.31-.25.58-.52.73-.16.09-.34.14-.52.14Zm-2.27-19.67c-1.85,6.89.85,15.16,1.58,17.19,1.29-3.95,5.56-13.77,6.77-16.52-.99-.59-4.6-.89-8.35-.67Z"/><path class="cls-8" d="m154.31,120.31s-.99,9.55-6.97,19.7l5.27,2.99s7.19-16.93,8.56-17.51c0,0-5.77-3.28-6.87-5.17Z"/><path class="cls-16" d="m152.62,144.05c-.18,0-.36-.05-.52-.14l-5.27-2.98c-.25-.14-.43-.37-.5-.65-.07-.27-.03-.57.11-.81,5.79-9.84,6.81-19.18,6.82-19.27.05-.45.38-.83.83-.92.44-.1.9.11,1.13.5.69,1.2,4.34,3.57,6.47,4.78.35.2.55.58.53.98-.02.35-.21.67-.51.85-.98.99-4.88,9.38-8.13,17.02-.12.28-.35.49-.63.59-.11.04-.22.06-.34.06Zm-3.83-4.44l3.32,1.88c4.25-9.95,6.38-14.01,7.49-15.71-1.23-.74-3.15-1.97-4.58-3.18-.62,3.3-2.25,9.92-6.23,17.01Zm12.8-13.16h0,0Z"/><path class="cls-9" d="m181.29,53.04c1.96.64,3.05,1.46,2.73,2.45s-1.32,2.5-3.93,1.86c-2.62-.64-4.23-1.48-5.12-2.61"/><path class="cls-16" d="m181.24,58.24c-.41,0-.85-.05-1.33-.17-2.76-.67-4.52-1.58-5.53-2.87-.26-.33-.2-.8.12-1.06.32-.26.8-.2,1.06.12.79,1,2.33,1.76,4.71,2.34,1.99.48,2.75-.47,3.04-1.36.03-.08.08-.24-.28-.55-.27-.23-.82-.58-1.97-.95-.39-.13-.61-.55-.48-.95.13-.39.55-.61.95-.48,1.12.37,1.93.77,2.48,1.24.98.84.88,1.71.73,2.16-.42,1.31-1.55,2.53-3.5,2.53Z"/><path class="cls-9" d="m165.32,55.55c-.9,1.36-1.84,3.13-.98,4.13s2.77.74,4.17-.08c1.4-.81,3.7-2.99,4.55-3.95"/><path class="cls-16" d="m166.02,61.08c-.88,0-1.69-.27-2.24-.91-1.35-1.57.3-4.08.92-5.03.23-.35.69-.44,1.04-.22.35.23.44.69.22,1.04-1.37,2.08-1.32,2.9-1.04,3.22.52.6,1.96.5,3.22-.24,1.34-.78,3.58-2.92,4.36-3.8.28-.31.75-.34,1.06-.07.31.27.34.75.07,1.06-.85.97-3.23,3.23-4.73,4.1-.87.51-1.92.82-2.88.82Z"/><path class="cls-11" d="m174.96,30.67c6.42,2.6,9,8.08,9.64,10.57.64,2.48,1.98,10.84-4.84,13.95-6.81,3.11-14.51,2.71-16.04,2.14-2.27-.84-7.02-3.06-6.52-13.18.76-15.33,11.33-16.08,17.75-13.48Z"/><path class="cls-16" d="m167.56,58.48c-1.95,0-3.43-.2-4.1-.45-1.87-.69-7.56-2.8-7.01-13.92.32-6.57,2.41-11.13,6.2-13.55,3.41-2.18,8.12-2.4,12.59-.59h0c7.83,3.17,9.88,10.28,10.09,11.08.3,1.14,2.65,11.22-5.25,14.83-4.4,2.01-9.16,2.61-12.52,2.61Zm1.56-28.22c-1.81,0-3.81.38-5.66,1.57-3.35,2.14-5.21,6.3-5.5,12.36-.49,10.02,4.25,11.77,6.03,12.43,1.39.51,8.94.86,15.47-2.12,6.65-3.03,4.85-11.43,4.42-13.08-.19-.72-2.05-7.17-9.2-10.06h0c-.88-.36-3.03-1.1-5.56-1.1Z"/><path class="cls-11" d="m181.28,44.28c.99.29,5.26.76,5.96-1.17.7-1.93-1.57-3.76-4.83-4.63"/><path class="cls-16" d="m183.75,45.3c-1.25,0-2.36-.21-2.68-.3-.4-.12-.62-.54-.51-.93.12-.4.53-.63.93-.51,1.11.33,4.6.5,5.04-.7.14-.37.1-.73-.09-1.12-.53-1.01-2.14-1.98-4.22-2.53-.4-.11-.64-.52-.53-.92.11-.4.51-.64.92-.53,2.55.68,4.43,1.88,5.17,3.29.39.75.45,1.56.17,2.33-.57,1.55-2.51,1.93-4.2,1.93Z"/><path class="cls-1" d="m166.19,37.46c1.16-.65,4.01-.28,4.57.54.55.82,1.92,2.9.12,4.82s-4.49,1.15-4.99.59c-.5-.56-1.91-2.3-1.4-3.56.51-1.26.92-1.95,1.71-2.39Z"/><path class="cls-13" d="m167.99,44.79h-.06c-1.08-.01-2.15-.37-2.61-.88-.68-.76-2.2-2.71-1.53-4.35.55-1.36,1.04-2.21,2.04-2.76h0c1.39-.77,4.72-.46,5.55.78,1.51,2.24,1.53,4.17.04,5.75-1.13,1.2-2.48,1.46-3.43,1.46Zm-1.43-6.67h0c-.55.31-.87.78-1.37,2.01-.27.65.44,1.87,1.26,2.78.33.31,2.47.9,3.89-.61,1.25-1.32.6-2.7-.19-3.88-.33-.43-2.68-.8-3.58-.3Z"/><path class="cls-16" d="m171.63,34.25c.16-.71,1.57-.65,1.78.35.21,1-.36,1.17-.63,1.23s-1.5-.07-1.15-1.58Z"/><path class="cls-16" d="m172.67,35.99c-.25,0-.65-.08-.93-.37-.31-.32-.4-.79-.26-1.41h0c.09-.36.43-.6.89-.6h.02c.49,0,1.05.3,1.18.95.09.43.05.78-.11,1.02-.2.3-.53.37-.64.39-.04,0-.09.01-.15.01Zm-.3-2.06c-.23,0-.52.09-.58.35h0c-.12.5-.06.88.17,1.12.27.27.68.29.79.27.13-.03.32-.08.44-.26.11-.17.14-.44.07-.79-.1-.48-.51-.69-.88-.7h-.01Zm-.73.32h0,0Z"/><path class="cls-16" d="m161.17,40.59c.62-.77,1.57-.11,1.69.47s-.05,1.33-.9,1.23c-.85-.1-1.32-1.05-.79-1.71Z"/><path class="cls-16" d="m162.11,42.46c-.05,0-.11,0-.16,0-.48-.06-.88-.36-1.06-.79-.16-.4-.1-.83.16-1.17h0c.27-.34.63-.48,1.03-.38.45.11.86.51.95.92.1.46,0,.9-.23,1.16-.12.13-.33.27-.68.27Zm-.27-2.06c-.17,0-.37.06-.54.29,0,0,0,0,0,0-.2.25-.24.55-.12.85.14.33.44.56.81.6.25.03.45-.03.57-.16.2-.22.21-.6.15-.88-.05-.26-.34-.59-.71-.68-.05-.01-.1-.02-.16-.02Zm-.67.19h0,0Z"/><path class="cls-1" d="m165.2,42.72s4.45-1.99,4.91-3.74"/><path class="cls-13" d="m165.2,43.47c-.29,0-.56-.17-.69-.45-.17-.38,0-.82.38-.99,1.71-.76,4.24-2.28,4.49-3.25.11-.4.51-.64.92-.53.4.11.64.52.53.92-.53,2-4.54,3.88-5.33,4.23-.1.04-.2.07-.31.07Z"/><path class="cls-12" d="m231.28,129.68s-.26-2.88,2.24-3.08c2.5-.19,3.14,1.86,2.88,2.56,0,0,2.5-1.35,3.72,1.03,1.22,2.37-.13,3.65-1.09,3.72,0,0,1.41,2.63.06,3.78-1.35,1.15-2.95,1.35-4.17.38,0,0-1.99,2.24-3.97.64-1.99-1.6-.77-3.78-.77-3.78,0,0-2.82-.26-2.37-3.14.45-2.88,3.46-2.12,3.46-2.12Z"/><path class="cls-1" d="m235.38,133.08c0,.6-.49,1.09-1.09,1.09s-1.09-.49-1.09-1.09.49-1.09,1.09-1.09,1.09.49,1.09,1.09Z"/><path class="cls-12" d="m251.54,83.72s-.19-2.15,1.67-2.29,2.34,1.38,2.15,1.91c0,0,1.86-1,2.77.76.91,1.77-.1,2.72-.81,2.77,0,0,1.05,1.96.05,2.82-1,.86-2.2,1-3.1.29,0,0-1.48,1.67-2.96.48-1.48-1.19-.57-2.82-.57-2.82,0,0-2.1-.19-1.77-2.34.33-2.15,2.58-1.58,2.58-1.58Z"/><circle class="cls-1" cx="253.79" cy="86.25" r=".81"/><path class="cls-12" d="m231.65,46.33s-.25-2.82,2.19-3,3.07,1.82,2.82,2.5c0,0,2.44-1.31,3.63,1,1.19,2.32-.13,3.57-1.06,3.63,0,0,1.38,2.57.06,3.69-1.31,1.13-2.88,1.31-4.07.38,0,0-1.94,2.19-3.88.63-1.94-1.57-.75-3.69-.75-3.69,0,0-2.75-.25-2.32-3.07s3.38-2.07,3.38-2.07Z"/><path class="cls-1" d="m235.66,49.65c0,.59-.48,1.06-1.06,1.06s-1.06-.48-1.06-1.06.48-1.06,1.06-1.06,1.06.48,1.06,1.06Z"/></g></g></svg>